# xmcd
#
# Track frame offsets:
#	183
#	26773
#	55313
#	74555
#	91823
#	127800
#	163020
#	207773
#	228285
#	267700
#	287530
#	304740
#
# Disc length: 4507 seconds
#
# Revision: 0
# Processed by: cddbd v1.5.1PL0 Copyright (c) Steve Scherf et al.
# Submitted via: audiograbber 1.83.01
#
DISCID=a811990c
DTITLE=Luther Allison - Live In Montreux
DYEAR=1900
DGENRE=Blues
TTITLE0=Hot Shot
TTITLE1=Life Is A Bitch
TTITLE2=Don't Wanna Wait
TTITLE3=Just My Guitar
TTITLE4=Show Me A Reason
TTITLE5=You're My Woman
TTITLE6=Bad News Is Coming
TTITLE7=Backtrack
TTITLE8=Serious
TTITLE9=Confusion
TTITLE10=Things Ain't Right
TTITLE11=Sky Is Crying
EXTD=
EXTT0=
EXTT1=
EXTT2=
EXTT3=
EXTT4=
EXTT5=
EXTT6=
EXTT7=
EXTT8=
EXTT9=
EXTT10=
EXTT11=
PLAYORDER=
